<mxfile host="app.diagrams.net" modified="2023-11-22T01:41:00.351Z" agent="Mozilla/5.0 (Windows NT 10.0; Win64; x64) AppleWebKit/537.36 (KHTML, like Gecko) Chrome/119.0.0.0 Safari/537.36" version="22.1.3" etag="4oOcwPZSVR15hKw1dy84" type="github">
  <diagram name="Page-1" id="BYTmRd1X9axvKW2b9m_H">
    <mxGraphModel>
      <root>
        <mxCell id="0" />
        <mxCell id="1" parent="0" />
      </root>
    </mxGraphModel>
  </diagram>
</mxfile>
